<?xml version="1.0" standalone="no"?>
<!DOCTYPE svg PUBLIC "-//W3C//DTD SVG 20010904//EN"
 "http://www.w3.org/TR/2001/REC-SVG-20010904/DTD/svg10.dtd">
<svg version="1.0" xmlns="http://www.w3.org/2000/svg"
 width="898.000000pt" height="898.000000pt" viewBox="0 0 898.000000 898.000000"
 preserveAspectRatio="xMidYMid meet">
<metadata>
Created by potrace 1.11, written by Peter Selinger 2001-2013
</metadata>
<g transform="translate(0.000000,898.000000) scale(0.100000,-0.100000)"
fill="#000000" stroke="none">
<path d="M3589 8066 c-2 -2 -35 -6 -74 -10 -97 -9 -231 -30 -325 -51 -14 -3
-36 -8 -50 -11 -106 -20 -431 -123 -530 -166 -25 -11 -59 -27 -77 -34 -17 -8
-34 -14 -38 -14 -16 0 -388 -192 -485 -250 -692 -415 -1300 -987 -1635 -1538
-82 -136 -234 -442 -218 -442 3 0 1 -6 -5 -12 -22 -29 -94 -278 -118 -413 -25
-142 -29 -187 -29 -375 0 -212 6 -280 41 -440 95 -433 331 -853 678 -1205 107
-109 304 -275 324 -275 6 0 12 -3 14 -7 11 -26 222 -147 368 -210 86 -37 250
-96 304 -108 124 -28 166 -37 195 -41 18 -3 43 -8 55 -10 93 -18 437 -25 561
-11 33 3 83 9 110 12 l50 6 67 -138 c335 -691 1025 -1153 1988 -1328 101 -19
127 -23 180 -30 25 -3 56 -8 70 -10 44 -7 160 -19 318 -32 196 -16 846 -8 952
12 8 1 47 6 85 10 83 8 121 13 155 20 14 3 45 8 70 11 25 3 86 15 135 26 50
10 101 21 115 24 100 19 461 130 545 168 17 7 73 32 125 55 203 88 450 238
622 377 419 339 686 767 791 1270 23 108 29 149 43 294 5 58 5 313 -1 365 -34
321 -89 523 -215 780 -58 121 -173 307 -235 384 -164 200 -347 368 -554 509
-66 45 -122 82 -124 82 -3 0 -34 17 -68 38 -56 34 -207 109 -294 147 -16 7
-51 22 -77 34 -26 12 -51 21 -54 21 -3 0 -47 15 -98 34 -160 60 -518 151 -676
171 -25 3 -52 8 -60 10 -8 2 -40 7 -70 10 -30 3 -66 8 -80 10 -14 2 -54 7 -90
10 -103 8 -174 16 -176 18 -1 1 -4 65 -8 142 -3 77 -7 149 -9 160 -3 11 -8 43
-11 70 -11 75 -54 250 -83 335 -82 242 -184 434 -342 645 -106 142 -244 289
-361 384 -30 25 -60 49 -65 55 -6 6 -17 16 -26 21 -8 6 -62 41 -120 79 -253
169 -570 289 -899 342 -93 15 -568 31 -581 20z"/>
</g>
</svg>
